Coordinates
version=1
nRows=16
nColumns=22
inDegrees=yes

Units are S.I. units (second, meters, Newtons, ...)
If the header above contains a line with 'inDegrees', this indicates whether rotational values are in degrees (yes) or radians (no).

endheader
time	pelvis_tilt	pelvis_list	pelvis_rotation	pelvis_tx	pelvis_ty	pelvis_tz	hip_flexion_r	hip_adduction_r	hip_rotation_r	knee_angle_r	ankle_angle_r	subtalar_angle_r	hip_flexion_l	hip_adduction_l	hip_rotation_l	knee_angle_l	ankle_angle_l	subtalar_angle_l	lumbar_extension	lumbar_bending	lumbar_rotation
      0.01000000	      4.81291551	     -3.93633426	      3.45472182	      1.22334101	      0.94242925	     -0.08737972	     -6.60333059	      4.99079230	     -6.83164798	     -8.20280367	      9.78555745	      0.07954538	     -4.46487039	     -4.70705742	    -12.11066546	    -14.29600986	     21.27339124	     -6.12626463	    -11.40448914	      3.50198242	     -8.74623984
      0.02000000	      4.81234726	     -3.93329523	      3.45769560	      1.22333130	      0.94242732	     -0.08738568	     -6.59763818	      4.98859737	     -6.79903655	     -8.21337319	      9.79370341	      0.07874070	     -4.46114225	     -4.70370809	    -12.10258467	    -14.30045605	     21.25931808	     -6.12983723	    -11.41176447	      3.50228718	     -8.77910377
      0.03000000	      4.80772706	     -3.92096410	      3.45087780	      1.22334417	      0.94242276	     -0.08737863	     -6.59232560	      4.97584264	     -6.74921021	     -8.21782451	      9.80104713	      0.07655574	     -4.46414957	     -4.68724897	    -12.10221781	    -14.28926125	     21.25076187	     -6.13336780	    -11.41225000	      3.48967406	     -8.80281639
      0.04000000	      4.80252334	     -3.90578653	      3.43948844	      1.22337820	      0.94242278	     -0.08735585	     -6.59026857	      4.96036381	     -6.69180126	     -8.21743128	      9.80925599	      0.07250433	     -4.47346110	     -4.66709313	    -12.10658888	    -14.26916071	     21.24063201	     -6.13812480	    -11.41033714	      3.47182315	     -8.82087255
      0.05000000	      4.79991797	     -3.88995165	      3.43084275	      1.22342998	      0.94242432	     -0.08733479	     -6.59574523	      4.94570676	     -6.63414164	     -8.21128876	      9.81898595	      0.06616079	     -4.48708815	     -4.64638869	    -12.11131054	    -14.24658142	     21.22773368	     -6.14412885	    -11.40787202	      3.45384215	     -8.83848806
      0.06000000	      4.80608353	     -3.87193602	      3.42088303	      1.22350384	      0.94244193	     -0.08731384	     -6.62085003	      4.92989596	     -6.57229971	     -8.18765835	      9.83317921	      0.05048997	     -4.51577021	     -4.62167286	    -12.10655553	    -14.21798030	     21.20419614	     -6.15589740	    -11.41168620	      3.43492520	     -8.83996358
      0.07000000	      4.80865036	     -3.86429567	      3.42447005	      1.22356449	      0.94244393	     -0.08729408	     -6.62828064	      4.92547725	     -6.54583274	     -8.18932399	      9.83500602	      0.04592940	     -4.52876865	     -4.61504153	    -12.11222817	    -14.20454033	     21.20348310	     -6.15829147	    -11.41257365	      3.42650905	     -8.87593215
      0.08000000	      4.81347857	     -3.84746149	      3.43010023	      1.22364602	      0.94245185	     -0.08728672	     -6.65401264	      4.91281302	     -6.50264135	     -8.16389482	      9.84481767	      0.03832466	     -4.54724856	     -4.59646415	    -12.10728677	    -14.18880719	     21.19862589	     -6.16114831	    -11.41061543	      3.41117813	     -8.91639565
      0.09000000	      4.82556753	     -3.83241267	      3.43748418	      1.22373192	      0.94246956	     -0.08727553	     -6.69090572	      4.90345957	     -6.46150958	     -8.13240939	      9.85401652	      0.02831123	     -4.57654215	     -4.57992143	    -12.09420254	    -14.16694510	     21.18768362	     -6.16543800	    -11.41635704	      3.39656235	     -8.95040116
      0.10000000	      4.86688076	     -3.81286060	      3.44692824	      1.22382449	      0.94253521	     -0.08728598	     -6.76852840	      4.89004592	     -6.42673810	     -8.08525750	      9.85389566	      0.00678098	     -4.64774892	     -4.55508814	    -12.06442717	    -14.12575998	     21.16226354	     -6.17783863	    -11.45786577	      3.38306904	     -8.96329912
      0.11000000	      4.87148402	     -3.80484310	      3.44702861	      1.22390560	      0.94253678	     -0.08724712	     -6.78272213	      4.88555879	     -6.41476208	     -8.07983732	      9.85375662	      0.00484789	     -4.66502446	     -4.54897055	    -12.07428251	    -14.11347968	     21.16390283	     -6.18016268	    -11.45322632	      3.37421691	     -8.99959380
      0.12000000	      4.88180099	     -3.78582449	      3.45458970	      1.22399339	      0.94254742	     -0.08722331	     -6.81871481	      4.87142186	     -6.39137211	     -8.04681053	      9.85930015	      0.00375107	     -4.68787145	     -4.53071132	    -12.06945122	    -14.10164538	     21.16254384	     -6.18228194	    -11.45373833	      3.35443779	     -9.03825168
      0.13000000	      4.90442854	     -3.76592586	      3.46298188	      1.22408781	      0.94257788	     -0.08720199	     -6.87146025	      4.85738135	     -6.36319887	     -8.01007899	      9.86396696	      0.00466188	     -4.73238016	     -4.50922032	    -12.05253961	    -14.07314671	     21.15217827	     -6.18672678	    -11.46850176	      3.33547711	     -9.07991976
      0.14000000	      4.96408534	     -3.74365791	      3.46811798	      1.22418502	      0.94266948	     -0.08718121	     -6.96586862	      4.84139892	     -6.34688569	     -7.96999715	      9.85769431	      0.01383808	     -4.83108955	     -4.48245307	    -12.01838205	    -14.02040148	     21.12064700	     -6.20313075	    -11.52871196	      3.31704176	     -9.08924712
      0.15000000	      4.96626253	     -3.73918309	      3.46947722	      1.22426212	      0.94266377	     -0.08713901	     -6.97419954	      4.83951644	     -6.34410143	     -7.97140696	      9.85763064	      0.01441284	     -4.83839431	     -4.48136128	    -12.02025581	    -14.02209477	     21.12124734	     -6.20355597	    -11.51771405	      3.31439016	     -9.09592739
      0.16000000	      5.00603787	     -3.69703106	      3.48474081	      1.22436698	      0.94272483	     -0.08713150	     -7.06516416	      4.80442434	     -6.30802163	     -7.90055763	      9.86536207	      0.03345108	     -4.90686661	     -4.43543423	    -11.99687027	    -13.98410144	     21.10669149	     -6.21115417	    -11.55257598	      3.27256517	     -9.14911932
